<svg viewBox="0 0 163 36" xmlns="http://www.w3.org/2000/svg" data-logo="logo">
        <g transform="translate(0, 1) rotate(0)" id="logogram" style="opacity: 1;"><path fill="#F8FAFC" d="M15.4992 0H36.5808L21.0816 22.9729H0L15.4992 0Z"></path><path fill="#FF69B4" d="M16.4224 25.102L10.4192 34H32.5008L48 11.0271H31.7024L22.2064 25.102H16.4224Z"></path></g>
        <g transform="translate(54, 4.5)" id="logotype" style="opacity: 1;"><path d="M17.64 27.38L17.64 27.38Q14.58 27.38 12.31 26.44Q10.05 25.50 8.79 23.65Q7.52 21.80 7.45 19.10L7.45 19.10L12.53 19.10Q12.63 20.39 13.30 21.25Q13.96 22.11 15.07 22.54Q16.19 22.97 17.59 22.97L17.59 22.97Q18.99 22.97 20.02 22.57Q21.06 22.16 21.64 21.43Q22.22 20.69 22.22 19.72L22.22 19.72Q22.22 18.85 21.70 18.26Q21.18 17.67 20.20 17.24Q19.23 16.81 17.83 16.49L17.83 16.49L15.02 15.79Q11.79 15.00 9.96 13.32Q8.14 11.64 8.14 8.87L8.14 8.87Q8.14 6.56 9.38 4.83Q10.61 3.11 12.78 2.15Q14.94 1.19 17.71 1.19L17.71 1.19Q20.53 1.19 22.63 2.16Q24.73 3.13 25.91 4.84Q27.09 6.56 27.12 8.80L27.12 8.80L22.08 8.80Q21.94 7.26 20.77 6.42Q19.60 5.59 17.66 5.59L17.66 5.59Q16.34 5.59 15.40 5.96Q14.46 6.34 13.96 7.00Q13.47 7.67 13.47 8.53L13.47 8.53Q13.47 9.47 14.04 10.09Q14.61 10.71 15.54 11.10Q16.48 11.48 17.55 11.74L17.55 11.74L19.86 12.30Q21.47 12.66 22.85 13.28Q24.23 13.89 25.28 14.79Q26.32 15.69 26.89 16.92Q27.46 18.15 27.46 19.75L27.46 19.75Q27.46 22.06 26.30 23.78Q25.14 25.50 22.94 26.44Q20.73 27.38 17.64 27.38ZM34.16 27.38L34.16 27.38Q32.35 27.38 30.91 26.74Q29.46 26.09 28.63 24.82Q27.80 23.55 27.80 21.65L27.80 21.65Q27.80 20.06 28.39 18.98Q28.98 17.91 30.00 17.26Q31.02 16.61 32.31 16.27Q33.60 15.93 35.02 15.79L35.02 15.79Q36.67 15.62 37.69 15.47Q38.71 15.33 39.18 15.01Q39.65 14.70 39.65 14.08L39.65 14.08L39.65 13.99Q39.65 13.17 39.31 12.61Q38.96 12.05 38.30 11.75Q37.63 11.45 36.66 11.45L36.66 11.45Q35.67 11.45 34.93 11.75Q34.20 12.05 33.73 12.54Q33.27 13.04 33.05 13.65L33.05 13.65L28.35 12.87Q28.85 11.21 29.99 10.05Q31.14 8.88 32.84 8.27Q34.54 7.65 36.66 7.65L36.66 7.65Q38.21 7.65 39.66 8.02Q41.12 8.39 42.27 9.16Q43.42 9.93 44.10 11.16Q44.77 12.39 44.77 14.13L44.77 14.13L44.77 27L39.92 27L39.92 24.35L39.75 24.35Q39.29 25.24 38.52 25.91Q37.75 26.59 36.67 26.98Q35.58 27.38 34.16 27.38ZM35.61 23.77L35.61 23.77Q36.83 23.77 37.74 23.29Q38.66 22.81 39.17 21.99Q39.68 21.17 39.68 20.16L39.68 20.16L39.68 18.10Q39.46 18.27 39.00 18.40Q38.54 18.54 37.97 18.64Q37.41 18.75 36.86 18.83Q36.32 18.92 35.89 18.97L35.89 18.97Q34.95 19.10 34.23 19.41Q33.51 19.72 33.12 20.22Q32.73 20.73 32.73 21.51L32.73 21.51Q32.73 22.25 33.10 22.75Q33.48 23.26 34.12 23.51Q34.76 23.77 35.61 23.77ZM55.01 17.48L51.52 21.41L51.52 15.24L52.29 15.24L58.55 7.89L64.48 7.89L56.22 17.48L55.01 17.48ZM52.00 27L46.87 27L46.87 1.54L52.00 1.54L52.00 27ZM64.84 27L58.80 27L53.06 18.63L56.50 14.99L64.84 27ZM70.03 15.94L70.03 15.94L70.03 27L64.90 27L64.90 1.54L69.93 1.54L69.93 12.66L69.52 12.66Q70.27 10.27 71.80 8.96Q73.33 7.65 75.75 7.65L75.75 7.65Q77.74 7.65 79.22 8.52Q80.69 9.38 81.51 11.00Q82.32 12.61 82.32 14.85L82.32 14.85L82.32 27L77.19 27L77.19 15.74Q77.19 13.96 76.28 12.95Q75.36 11.94 73.74 11.94L73.74 11.94Q72.66 11.94 71.82 12.41Q70.97 12.88 70.50 13.77Q70.03 14.66 70.03 15.94ZM89.75 27.38L89.75 27.38Q87.94 27.38 86.49 26.74Q85.05 26.09 84.22 24.82Q83.39 23.55 83.39 21.65L83.39 21.65Q83.39 20.06 83.98 18.98Q84.57 17.91 85.59 17.26Q86.60 16.61 87.89 16.27Q89.19 15.93 90.60 15.79L90.60 15.79Q92.26 15.62 93.28 15.47Q94.30 15.33 94.76 15.01Q95.23 14.70 95.23 14.08L95.23 14.08L95.23 13.99Q95.23 13.17 94.89 12.61Q94.55 12.05 93.88 11.75Q93.22 11.45 92.24 11.45L92.24 11.45Q91.25 11.45 90.52 11.75Q89.78 12.05 89.32 12.54Q88.86 13.04 88.64 13.65L88.64 13.65L83.94 12.87Q84.43 11.21 85.58 10.05Q86.72 8.88 88.42 8.27Q90.13 7.65 92.24 7.65L92.24 7.65Q93.80 7.65 95.25 8.02Q96.70 8.39 97.86 9.16Q99.01 9.93 99.69 11.16Q100.36 12.39 100.36 14.13L100.36 14.13L100.36 27L95.51 27L95.51 24.35L95.34 24.35Q94.88 25.24 94.11 25.91Q93.34 26.59 92.25 26.98Q91.17 27.38 89.75 27.38ZM91.20 23.77L91.20 23.77Q92.42 23.77 93.33 23.29Q94.24 22.81 94.76 21.99Q95.27 21.17 95.27 20.16L95.27 20.16L95.27 18.10Q95.05 18.27 94.59 18.40Q94.12 18.54 93.56 18.64Q93.00 18.75 92.45 18.83Q91.90 18.92 91.48 18.97L91.48 18.97Q90.54 19.10 89.82 19.41Q89.10 19.72 88.71 20.22Q88.31 20.73 88.31 21.51L88.31 21.51Q88.31 22.25 88.69 22.75Q89.07 23.26 89.71 23.51Q90.35 23.77 91.20 23.77ZM107.59 27L102.46 27L102.46 7.89L107.59 7.89L107.59 27ZM105.03 5.40L105.03 5.40Q103.86 5.40 103.04 4.63Q102.22 3.86 102.22 2.77L102.22 2.77Q102.22 1.67 103.04 0.90Q103.86 0.13 105.03 0.13L105.03 0.13Q106.19 0.13 107.02 0.90Q107.85 1.66 107.85 2.77L107.85 2.77Q107.85 3.86 107.02 4.63Q106.19 5.40 105.03 5.40Z" fill="#fcfcfc"></path></g>
        
      </svg>